<?xml version="1.0" standalone="no"?>
<!DOCTYPE svg PUBLIC "-//W3C//DTD SVG 20010904//EN"
 "https://www.w3.org/TR/2001/REC-SVG-20010904/DTD/svg10.dtd">
<svg version="1.0" xmlns="https://www.w3.org/2000/svg"
 width="704.000000pt" height="704.000000pt" viewBox="0 0 704.000000 704.000000"
 preserveAspectRatio="xMidYMid meet">
<metadata>
Created by potrace 1.14, written by Peter Selinger 2001-2017
</metadata>
<g transform="translate(0.000000,704.000000) scale(0.100000,-0.100000)"
fill="#000000" stroke="none">
<path d="M3375 6513 c-451 -38 -937 -190 -1497 -468 -193 -96 -226 -117 -234
-151 -7 -28 23 -78 81 -134 76 -74 40 -153 -218 -480 -72 -91 -129 -198 -151
-284 -14 -54 -14 -62 3 -110 10 -28 28 -79 40 -113 l22 -62 -38 -123 c-56
-181 -54 -227 19 -378 31 -63 61 -133 67 -154 10 -38 9 -41 -39 -105 -61 -81
-145 -246 -164 -323 -100 -398 38 -789 364 -1038 85 -64 91 -74 150 -245 178
-516 511 -902 979 -1135 202 -100 342 -148 529 -180 213 -36 256 -36 447 -2
375 68 687 220 1004 489 41 35 76 62 77 60 2 -1 -4 -54 -12 -117 -18 -138 -52
-286 -101 -435 -28 -86 -36 -127 -36 -185 -1 -139 61 -244 174 -295 73 -32
120 -30 197 9 67 34 107 83 132 162 38 123 27 184 -70 387 -95 200 -124 337
-118 558 l3 136 55 89 c30 49 76 134 103 189 49 100 137 323 137 347 0 7 11
36 24 65 22 46 32 56 87 84 117 59 234 192 309 351 101 217 127 491 66 699
-34 117 -66 187 -135 294 -32 49 -60 97 -63 105 -10 30 13 172 43 267 44 136
43 194 -5 293 -20 41 -36 82 -36 92 0 9 16 44 35 76 19 33 40 80 47 105 11 41
9 53 -16 129 -44 135 -75 183 -258 405 -24 29 -51 68 -62 87 l-18 34 33 41
c26 34 33 50 33 91 1 43 -3 53 -34 85 -19 20 -71 64 -115 97 -44 34 -109 84
-145 112 -353 274 -460 341 -697 435 -279 111 -690 170 -998 144z m1202 -807
c158 -42 282 -167 350 -353 61 -168 67 -308 27 -611 -35 -266 -37 -511 -6
-625 44 -162 85 -220 283 -402 88 -81 109 -118 139 -241 32 -128 12 -262 -57
-395 -54 -105 -95 -140 -211 -177 -93 -30 -100 -35 -126 -77 -28 -43 -80 -85
-123 -99 -12 -4 -72 3 -135 15 -118 22 -226 22 -254 -2 -25 -21 -45 -112 -64
-293 -21 -198 -27 -214 -75 -196 -31 12 -148 88 -231 151 -27 21 -90 57 -140
81 -74 34 -102 42 -167 46 -103 6 -152 -13 -207 -78 -23 -27 -49 -52 -59 -55
-29 -9 -67 11 -88 45 -12 20 -40 42 -83 63 -57 28 -74 32 -150 32 -95 0 -126
-13 -243 -104 -153 -119 -233 -172 -285 -187 -73 -22 -151 -11 -238 31 -38 18
-70 32 -72 30 -12 -12 51 -105 103 -153 144 -135 283 -202 435 -210 152 -7
253 28 395 138 91 71 144 100 178 100 40 0 103 -27 177 -75 39 -24 94 -57 122
-71 98 -49 130 -75 123 -98 -16 -53 -34 -144 -35 -177 0 -43 -23 -102 -56
-145 -96 -128 -448 -184 -684 -109 -104 33 -237 98 -350 173 -166 109 -407
378 -495 552 -54 108 -122 289 -154 413 -17 64 -41 142 -53 174 -23 56 -23 57
-78 68 -30 6 -74 21 -98 34 -119 62 -233 254 -249 421 -6 63 25 198 60 264 49
91 74 114 166 148 72 27 96 42 147 93 52 51 62 67 70 110 5 28 9 268 9 535 1
524 13 699 55 812 31 83 57 103 138 103 37 0 93 -6 124 -14 63 -15 50 -21 156
66 96 77 185 76 251 -4 48 -58 112 -199 137 -301 29 -117 86 -239 119 -254 19
-9 30 -7 52 7 102 64 113 103 112 371 l-1 202 28 53 c38 70 94 109 157 111 58
1 89 -18 127 -78 34 -54 94 -216 151 -409 23 -77 52 -164 65 -192 27 -63 71
-123 90 -123 26 0 81 60 107 117 14 32 42 136 61 232 44 215 56 254 101 339
71 136 163 191 320 192 44 0 103 -6 132 -14z"/>
<path d="M4261 3929 c-245 -48 -485 -221 -507 -366 -5 -34 -1 -61 20 -120 36
-106 79 -174 162 -252 59 -57 81 -71 142 -90 63 -21 86 -23 180 -18 135 6 205
30 323 109 100 67 172 143 221 232 40 74 78 173 78 204 0 13 7 36 17 52 15 27
15 30 -8 66 -34 55 -64 81 -143 121 -104 52 -199 73 -330 72 -61 -1 -131 -5
-155 -10z m137 -390 c57 -28 82 -69 82 -136 0 -58 -27 -101 -83 -130 -61 -31
-87 -34 -127 -13 -44 22 -68 50 -94 108 -22 49 -17 79 24 126 59 66 123 81
198 45z"/>
<path d="M2134 3700 c9 -68 56 -195 102 -277 42 -76 153 -192 234 -247 117
-78 317 -116 435 -81 143 41 256 135 319 267 32 67 67 210 55 222 -3 3 -57 13
-120 21 -63 9 -166 25 -229 35 -63 11 -203 31 -310 45 -107 14 -235 31 -285
39 -49 7 -117 17 -149 21 l-59 7 7 -52z m635 -155 c39 -20 78 -68 86 -106 11
-48 -13 -116 -52 -148 -41 -33 -91 -50 -129 -43 -38 7 -107 79 -121 126 -34
111 112 225 216 171z"/>
<path d="M3464 3041 c-27 -12 -92 -111 -148 -226 -58 -119 -62 -137 -33 -171
31 -35 53 -28 133 47 87 81 124 78 227 -18 39 -36 53 -44 80 -41 42 4 45 28
17 116 -22 68 -104 227 -141 271 -22 26 -96 38 -135 22z"/>
</g>
</svg>
